<svg width="50" height="50" viewBox="0 0 50 50" fill="none" xmlns="http://www.w3.org/2000/svg">
<path d="M5.46875 48.4375H8.59375C9.02557 48.4375 9.375 48.0877 9.375 47.6562V42.1875H28.125V47.6562C28.125 48.0877 28.4744 48.4375 28.9062 48.4375H35.9375H40.625H47.6562C48.0881 48.4375 48.4375 48.0877 48.4375 47.6562V35.9375C48.4375 35.7304 48.3551 35.5316 48.2086 35.3851L46.875 34.0515V27.3438V2.34375C46.875 1.9123 46.5256 1.5625 46.0938 1.5625H5.46875C3.31497 1.5625 1.5625 3.31497 1.5625 5.46875V44.5312C1.5625 46.685 3.31497 48.4375 5.46875 48.4375ZM36.7188 46.875V39.0625H39.8438V46.875H36.7188ZM46.875 46.875H41.4062V38.2812C41.4062 37.8498 41.0568 37.5 40.625 37.5H35.9375C35.5057 37.5 35.1562 37.8498 35.1562 38.2812V46.875H29.6875V36.261L38.2812 27.6672L41.6351 31.0211C41.8594 31.245 42.1951 31.3118 42.4866 31.1905C42.7788 31.0696 42.9688 30.7846 42.9688 30.4688V28.125H45.3125V34.375C45.3125 34.5821 45.3949 34.7809 45.5414 34.9274L46.875 36.261V46.875ZM5.46875 3.125H45.3125V26.5625H42.1875C41.7557 26.5625 41.4062 26.9123 41.4062 27.3438V28.5828L38.8336 26.0101C38.5284 25.705 38.0341 25.705 37.7289 26.0101L28.3539 35.3851C28.2074 35.5316 28.125 35.7304 28.125 35.9375V40.625H9.375V8.59375C9.375 8.1623 9.02557 7.8125 8.59375 7.8125H5.46875C4.17633 7.8125 3.125 6.76117 3.125 5.46875C3.125 4.17633 4.17633 3.125 5.46875 3.125ZM3.125 8.59184C3.77808 9.08317 4.58984 9.375 5.46875 9.375H7.8125V46.875H5.46875C4.17633 46.875 3.125 45.8237 3.125 44.5312V8.59184Z" fill="black"/>
<path d="M12.5 33.5938H17.1875C17.6193 33.5938 17.9688 33.2439 17.9688 32.8125C17.9688 31.794 18.6218 30.925 19.5312 30.6026V32.8125C19.5312 33.2439 19.8807 33.5938 20.3125 33.5938H25.7812C26.2131 33.5938 26.5625 33.2439 26.5625 32.8125V22.6562H42.1875C42.6193 22.6562 42.9688 22.3064 42.9688 21.875V6.25C42.9688 5.81855 42.6193 5.46875 42.1875 5.46875H12.5C12.0682 5.46875 11.7188 5.81855 11.7188 6.25V32.8125C11.7188 33.2439 12.0682 33.5938 12.5 33.5938ZM41.4062 21.0938H32.0312V19.5312H34.375C34.8068 19.5312 35.1562 19.1814 35.1562 18.75C35.1562 16.8636 33.812 15.2851 32.0312 14.9223V7.03125H41.4062V21.0938ZM21.875 7.03125V14.8438H21.0938V16.4062H22.6562C23.0881 16.4062 23.4375 16.0564 23.4375 15.625V7.03125H30.4688V15.625C30.4688 16.0564 30.8182 16.4062 31.25 16.4062C32.2685 16.4062 33.1375 17.0593 33.4602 17.9688H31.25C30.8182 17.9688 30.4688 18.3186 30.4688 18.75V21.0938H25.7812C25.3494 21.0938 25 21.4436 25 21.875V32.0312H21.0938V29.6875C21.0938 29.2561 20.7443 28.9062 20.3125 28.9062C18.4257 28.9062 16.848 30.2505 16.4848 32.0312H13.2812V16.4062H18.75V14.8438H13.2812V7.03125H21.875Z" fill="black"/>
<path d="M10.9375 37.5H12.5V39.0625H10.9375V37.5Z" fill="black"/>
<path d="M14.0625 37.5H15.625V39.0625H14.0625V37.5Z" fill="black"/>
<path d="M17.1875 37.5H18.75V39.0625H17.1875V37.5Z" fill="black"/>
</svg>
