<svg width="49" height="50" viewBox="0 0 49 50" fill="none" xmlns="http://www.w3.org/2000/svg">
<path d="M42.5766 8.15576L34.7445 0H11.4413V26.5893C8.08424 26.8877 5.43933 29.8266 5.43933 33.3984C5.43933 35.4492 6.31224 37.2904 7.69008 38.5445V50H9.23606L12.004 47.1177L14.7719 50H16.3179V44.9219H42.5766V8.15576ZM35.0741 2.00049L40.6555 7.8125H35.0741V2.00049ZM6.5647 33.3984C6.5647 30.2753 9.00479 27.7344 12.004 27.7344C15.0032 27.7344 17.4433 30.2753 17.4433 33.3984C17.4433 36.5216 15.0032 39.0625 12.004 39.0625C9.00479 39.0625 6.5647 36.5216 6.5647 33.3984ZM12.004 45.4604L8.81545 48.7808V39.371C9.76029 39.9201 10.8473 40.2345 12.004 40.2345C13.1607 40.2345 14.2477 39.9201 15.1926 39.371V48.7808L12.004 45.4604ZM16.3179 43.75V38.5445C17.6958 37.2904 18.5687 35.4492 18.5687 33.3984C18.5687 29.8267 15.9238 26.8878 12.5667 26.5893V1.17188H33.9488V8.98438H41.4512V43.75H16.3179Z" fill="black"/>
<path d="M16.5055 6.25H25.5085V7.42188H16.5055V6.25Z" fill="black"/>
<path d="M16.5055 9.375H22.5075V10.5469H16.5055V9.375Z" fill="black"/>
<path d="M16.5055 14.0625H37.5124V15.2344H16.5055V14.0625Z" fill="black"/>
<path d="M16.5055 17.1875H37.5124V18.3594H16.5055V17.1875Z" fill="black"/>
<path d="M16.5055 23.4375H37.5124V24.6094H16.5055V23.4375Z" fill="black"/>
<path d="M19.5065 26.5625H34.5114V27.7344H19.5065V26.5625Z" fill="black"/>
<path d="M16.5055 20.3125H37.5124V21.4844H16.5055V20.3125Z" fill="black"/>
<path d="M28.5094 31.25H37.5124V32.4219H28.5094V31.25Z" fill="black"/>
<path d="M31.5105 34.375H37.5125V35.5469H31.5105V34.375Z" fill="black"/>
<path d="M12.004 37.1094C13.969 37.1094 15.5677 35.4446 15.5677 33.3984C15.5677 31.3522 13.969 29.6875 12.004 29.6875C10.039 29.6875 8.44031 31.3522 8.44031 33.3984C8.44031 35.4446 10.039 37.1094 12.004 37.1094ZM12.004 30.8594C13.3485 30.8594 14.4423 31.9983 14.4423 33.3984C14.4423 34.7985 13.3485 35.9375 12.004 35.9375C10.6594 35.9375 9.56568 34.7985 9.56568 33.3984C9.56568 31.9983 10.6594 30.8594 12.004 30.8594Z" fill="black"/>
</svg>
