<svg width="50" height="50" viewBox="0 0 50 50" fill="none" xmlns="http://www.w3.org/2000/svg">
<path d="M49.2108 8.28856L47.7108 0.725223C47.6212 0.273764 47.1826 -0.0194648 46.7312 0.0701186C46.731 0.0701186 46.7309 0.0701186 46.7308 0.0702227L5.44251 8.27939H4.16668C3.70647 8.27939 3.33334 8.65251 3.33334 9.11272V13.3627C1.39095 13.7552 -0.00426106 15.4644 9.7781e-06 17.4461V45.7794C0.00271811 48.0794 1.86668 49.9433 4.16668 49.9461H49.1667C49.6269 49.9461 50 49.5729 50 49.1127V9.11272C49.9958 8.67272 49.6502 8.31178 49.2108 8.28856ZM46.2367 1.86772L47.51 8.27939H13.9892L46.2367 1.86772ZM2.38918 15.6777L2.39334 15.6811C2.65938 15.4171 2.98032 15.2151 3.33334 15.0894V19.7936C3.31501 19.7877 3.29668 19.7836 3.27834 19.7769C3.17074 19.7341 3.06636 19.6837 2.96584 19.6261C2.91584 19.5986 2.86251 19.5769 2.81418 19.5427C2.66438 19.4485 2.5248 19.339 2.39751 19.2161C1.42074 18.2401 1.41699 16.6581 2.38918 15.6777ZM48.3333 38.2794H36.6667V31.6127H48.3333V38.2794ZM48.3333 29.9461H35.8333C35.3731 29.9461 35 30.3192 35 30.7794V39.1127C35 39.5729 35.3731 39.9461 35.8333 39.9461H48.3333V48.2794H4.16668C2.78595 48.2794 1.66668 47.1601 1.66668 45.7794V20.7794C1.70418 20.8077 1.74584 20.8269 1.78418 20.8536C1.85751 20.9052 1.93334 20.9494 2.00918 20.9961C2.14949 21.0818 2.2948 21.1591 2.44418 21.2277C2.52751 21.2652 2.61084 21.3019 2.69418 21.3336C2.85449 21.3935 3.01845 21.4429 3.18501 21.4819C3.26251 21.5011 3.33751 21.5252 3.41584 21.5394C3.66334 21.5865 3.9147 21.6111 4.16668 21.6127H48.3333V29.9461ZM20.8925 19.9461C21.3502 16.7571 24.3064 14.5429 27.4954 15.0006C30.059 15.3686 32.0729 17.3826 32.4408 19.9461H20.8925ZM48.3333 19.9461H34.1175C33.644 15.8311 29.9243 12.8791 25.8093 13.3526C22.3463 13.7512 19.6143 16.483 19.2158 19.9461H5.00001V9.94606H48.3333V19.9461Z" fill="black"/>
</svg>
