<svg width="30" height="36" viewBox="0 0 30 36" fill="none" xmlns="http://www.w3.org/2000/svg">
<path d="M15 28.7871H9.81445V28.2012C10.6348 28.1035 11.1426 27.8594 11.3379 27.4688C11.5332 27.0781 11.6309 26.1797 11.6309 24.7734L11.543 9.01172L7.26562 28.7871H6.94336L2.63672 9.04102L2.46094 8.98242V24.1289C2.46094 25.5742 2.5 26.4336 2.57812 26.707C2.79297 27.6055 3.36914 28.1035 4.30664 28.2012V28.7871H0V28.2012C0.585938 28.0645 0.966797 27.8105 1.14258 27.4395C1.37695 26.8926 1.49414 25.7891 1.49414 24.1289V10.418C1.49414 9.32422 1.37695 8.5918 1.14258 8.2207C0.966797 7.98633 0.595703 7.83984 0.0292969 7.78125V7.22461H3.86719L7.4707 24.3926L11.0449 7.22461H15V7.78125C14.2188 7.85937 13.7305 8.19141 13.5352 8.77734C13.457 9.01172 13.418 9.64648 13.418 10.6816V25.1836C13.418 26.2578 13.457 26.9121 13.5352 27.1465C13.7109 27.752 14.1992 28.1035 15 28.2012V28.7871ZM30 28.7871H23.6719V28.2012C24.3359 28.123 24.7949 28.0156 25.0488 27.8789C25.3027 27.7617 25.4297 27.5176 25.4297 27.1465C25.4297 26.5215 24.4141 24.6855 22.3828 21.6387L19.8926 17.918L18.75 19.5V25.1836C18.75 26.3359 18.8867 27.1074 19.1602 27.498C19.4336 27.8691 19.9707 28.1035 20.7715 28.2012V28.7871H15V28.2012C16.0156 28.084 16.6504 27.7129 16.9043 27.0879C17.0215 26.7949 17.0801 26.0234 17.0801 24.7734V10.6816C17.0801 9.43164 16.9336 8.63086 16.6406 8.2793C16.4453 8.06445 15.8984 7.9082 15 7.81055V7.22461H21.0645V7.81055C20.0879 7.9082 19.4727 8.08398 19.2188 8.33789C18.9062 8.68945 18.75 9.4707 18.75 10.6816V18.0938C21.4648 14.5977 23.2031 12.2832 23.9648 11.1504C24.6875 10.0566 25.0488 9.2168 25.0488 8.63086C25.0488 8.31836 24.9512 8.11328 24.7559 8.01562C24.5605 7.91797 24.1602 7.84961 23.5547 7.81055V7.22461H29.3262V7.81055C28.9551 7.83008 28.584 7.85937 28.2129 7.89844C27.8418 7.9375 27.5098 8.08398 27.2168 8.33789C26.8066 8.65039 26.3184 9.20703 25.752 10.0078L20.9766 16.4531L26.6895 25.1543C27.4316 26.2676 28.0176 27.0391 28.4473 27.4688C28.9551 27.957 29.4727 28.2012 30 28.2012V28.7871Z" fill="black"/>
</svg>
