<svg width="50" height="50" viewBox="0 0 50 50" fill="none" xmlns="http://www.w3.org/2000/svg">
<path d="M36.3637 19.3182C37.6189 19.3182 38.6364 18.3007 38.6364 17.0455C38.6364 15.7903 37.6189 14.7727 36.3637 14.7727C35.1085 14.7727 34.0909 15.7903 34.0909 17.0455C34.0909 18.3007 35.1085 19.3182 36.3637 19.3182Z" fill="black"/>
<path d="M13.6363 19.3182C14.8915 19.3182 15.909 18.3007 15.909 17.0455C15.909 15.7903 14.8915 14.7727 13.6363 14.7727C12.3811 14.7727 11.3635 15.7903 11.3635 17.0455C11.3635 18.3007 12.3811 19.3182 13.6363 19.3182Z" fill="black"/>
<path d="M25 10.2272C21.25 10.2272 18.1819 13.2954 18.1819 17.0454C18.1819 20.7954 21.25 23.8636 25 23.8636C28.75 23.8636 31.8182 20.7954 31.8182 17.0454C31.8182 13.2954 28.75 10.2272 25 10.2272ZM25 21.5909C22.5 21.5909 20.4546 19.5455 20.4546 17.0455C20.4546 14.5454 22.5 12.5 25 12.5C27.5 12.5 29.5455 14.5454 29.5455 17.0454C29.5455 19.5454 27.5 21.5909 25 21.5909Z" fill="black"/>
<path d="M46.5909 1.13635H25H3.40908C1.47725 1.13635 0 2.6137 0 4.54543V29.5454C0 31.4773 1.47725 32.9545 3.40908 32.9545H18.1818C18.8637 32.9545 19.3182 32.4999 19.3182 31.8182C19.3182 31.1364 18.8636 30.6819 18.1818 30.6819H3.40908C2.72725 30.6819 2.27275 30.2273 2.27275 29.5455V4.54553C2.27275 3.8637 2.72734 3.4092 3.40908 3.4092H25H46.5909C47.2728 3.4092 47.7272 3.86379 47.7272 4.54553V22.7274C47.7272 23.4092 48.1818 23.8637 48.8636 23.8637C49.5453 23.8637 50 23.4091 50 22.7273V4.54543C50 2.6137 48.5228 1.13635 46.5909 1.13635Z" fill="black"/>
<path d="M44.2046 7.9546C43.5228 7.9546 43.0683 7.50001 43.0683 6.81827C43.0683 6.13654 42.6137 5.68195 41.932 5.68195H7.95464C7.2728 5.68195 6.81831 6.13654 6.81831 6.81827C6.81831 7.50001 6.36372 7.9546 5.68198 7.9546C5.00024 7.9546 4.54565 8.40919 4.54565 9.09093V25C4.54565 25.6819 5.00024 26.1364 5.68198 26.1364C6.36372 26.1364 6.81831 26.5909 6.81831 27.2727C6.81831 27.9545 7.2729 28.409 7.95464 28.409H19.3183C20.0001 28.409 20.4546 27.9544 20.4546 27.2727C20.4546 26.5908 20 26.1364 19.3183 26.1364H8.86372C8.5228 25.1136 7.72739 24.4318 6.81831 24.0909V10C7.84106 9.6591 8.5229 8.86369 8.86372 7.9546H41.0228C41.3637 8.97736 42.1591 9.65919 43.0682 10V19.3182C43.0682 20 43.5228 20.4545 44.2045 20.4545C44.8863 20.4545 45.3409 19.9999 45.3409 19.3182V9.09093C45.341 8.4091 44.8864 7.9546 44.2046 7.9546Z" fill="black"/>
<path d="M39.7728 21.5909C38.4091 21.5909 37.0456 21.9319 35.9092 22.5C35.341 22.7273 35.1137 23.4091 35.341 23.9773C35.5682 24.5454 36.2501 24.7727 36.8182 24.5454C37.7273 24.0908 38.7501 23.8636 39.7728 23.8636C43.5228 23.8636 46.591 26.9318 46.591 30.6818C46.591 32.0454 46.1364 33.409 45.341 34.5454C45.0001 35.1136 45.1137 35.7954 45.5682 36.1364C45.7955 36.25 46.0228 36.3636 46.2501 36.3636C46.591 36.3636 46.9319 36.2499 47.1591 35.909C48.1819 34.4318 48.7501 32.6136 48.7501 30.6818C48.8637 25.6819 44.7728 21.5909 39.7728 21.5909Z" fill="black"/>
<path d="M39.7728 27.2728C39.091 27.2728 38.6365 27.7274 38.6365 28.4091V29.5454C38.6365 30.2273 39.0911 30.6817 39.7728 30.6817C40.4546 30.6817 40.9091 30.2272 40.9091 29.5454V28.4091C40.9091 27.7273 40.4546 27.2728 39.7728 27.2728Z" fill="black"/>
<path d="M36.0227 26.5909C34.3182 24.8863 32.0455 23.8636 29.5455 23.8636C24.5455 23.8636 20.4546 27.9546 20.4546 32.9546C20.4546 35.4546 21.4773 37.7273 23.1818 39.4318C23.4091 39.6591 23.6364 39.7727 23.9772 39.7727C24.3181 39.7727 24.5454 39.6591 24.7727 39.4318C25.2272 38.9772 25.2272 38.2955 24.7727 37.8409C23.409 36.4772 22.7272 34.7727 22.7272 32.9546C22.7272 29.2046 25.7954 26.1364 29.5454 26.1364C31.3636 26.1364 33.1817 26.8182 34.4317 28.1818C34.8863 28.6364 35.5681 28.6364 36.0226 28.1818C36.4772 27.7272 36.4772 27.0454 36.0227 26.5909Z" fill="black"/>
<path d="M35.2273 30.6818C30.2273 30.6818 26.1364 34.7727 26.1364 39.7727C26.1364 44.7727 30.2273 48.8637 35.2273 48.8637C40.2273 48.8637 44.3182 44.7727 44.3182 39.7727C44.3182 34.7727 40.2273 30.6818 35.2273 30.6818ZM35.2273 46.5909C31.4773 46.5909 28.4091 43.5227 28.4091 39.7727C28.4091 36.0227 31.4773 32.9546 35.2273 32.9546C38.9773 32.9546 42.0454 36.0227 42.0454 39.7727C42.0454 43.5227 38.9773 46.5909 35.2273 46.5909Z" fill="black"/>
<path d="M35.2273 36.3636C34.5454 36.3636 34.0909 36.8182 34.0909 37.5V42.0454C34.0909 42.7272 34.5455 43.1817 35.2273 43.1817C35.909 43.1817 36.3636 42.7271 36.3636 42.0454V37.5C36.3637 36.8181 35.9091 36.3636 35.2273 36.3636Z" fill="black"/>
<path d="M29.5454 31.8181C30.173 31.8181 30.6817 31.3094 30.6817 30.6818C30.6817 30.0542 30.173 29.5455 29.5454 29.5455C28.9178 29.5455 28.4091 30.0542 28.4091 30.6818C28.4091 31.3094 28.9178 31.8181 29.5454 31.8181Z" fill="black"/>
</svg>
