<svg width="50" height="50" viewBox="0 0 50 50" fill="none" xmlns="http://www.w3.org/2000/svg">
<path d="M25 22.8028C24.8629 22.8028 24.7289 22.8161 24.5987 22.8402L17.895 11.2292C17.6928 10.8788 17.2447 10.7588 16.8945 10.961C16.5442 11.1632 16.4242 11.6112 16.6264 11.9615L23.3307 23.5736C23.0019 23.9578 22.8027 24.4559 22.8027 25C22.8027 25.9547 23.4151 26.7689 24.2676 27.0712V43.4083C24.2676 43.8128 24.5954 44.1407 25 44.1407C25.4046 44.1407 25.7324 43.8128 25.7324 43.4083V27.0713C26.5848 26.769 27.1972 25.9548 27.1972 25.0001C27.1972 23.7885 26.2115 22.8028 25 22.8028ZM25 25.7325C24.5961 25.7325 24.2676 25.404 24.2676 25.0001C24.2676 24.5961 24.5961 24.2676 25 24.2676C25.4039 24.2676 25.7324 24.5961 25.7324 25.0001C25.7324 25.404 25.4039 25.7325 25 25.7325Z" fill="black"/>
<path d="M42.6777 7.32227C37.9559 2.60049 31.6777 0 25 0C18.3223 0 12.0441 2.60049 7.32227 7.32227C2.60039 12.044 0 18.3223 0 25C0 31.6777 2.60049 37.9559 7.32227 42.6777C12.044 47.3996 18.3223 50 25 50C31.6777 50 37.9559 47.3995 42.6777 42.6777C47.3996 37.956 50 31.6777 50 25C50 18.3223 47.3995 12.0441 42.6777 7.32227ZM25 48.5352C12.0227 48.5352 1.46484 37.9773 1.46484 25C1.46484 12.0227 12.0227 1.46484 25 1.46484C37.9773 1.46484 48.5352 12.0227 48.5352 25C48.5352 37.9773 37.9773 48.5352 25 48.5352Z" fill="black"/>
<path d="M25 7.32422C25.4045 7.32422 25.7324 6.9963 25.7324 6.5918C25.7324 6.18729 25.4045 5.85938 25 5.85938C24.5955 5.85938 24.2676 6.18729 24.2676 6.5918C24.2676 6.9963 24.5955 7.32422 25 7.32422Z" fill="black"/>
<path d="M15.7959 9.79004C16.2004 9.79004 16.5283 9.46212 16.5283 9.05762C16.5283 8.65311 16.2004 8.3252 15.7959 8.3252C15.3914 8.3252 15.0635 8.65311 15.0635 9.05762C15.0635 9.46212 15.3914 9.79004 15.7959 9.79004Z" fill="black"/>
<path d="M9.05762 16.5283C9.46212 16.5283 9.79004 16.2004 9.79004 15.7959C9.79004 15.3914 9.46212 15.0635 9.05762 15.0635C8.65311 15.0635 8.3252 15.3914 8.3252 15.7959C8.3252 16.2004 8.65311 16.5283 9.05762 16.5283Z" fill="black"/>
<path d="M6.5918 25.7324C6.9963 25.7324 7.32422 25.4045 7.32422 25C7.32422 24.5955 6.9963 24.2676 6.5918 24.2676C6.18729 24.2676 5.85938 24.5955 5.85938 25C5.85938 25.4045 6.18729 25.7324 6.5918 25.7324Z" fill="black"/>
<path d="M9.05762 34.9365C9.46212 34.9365 9.79004 34.6086 9.79004 34.2041C9.79004 33.7996 9.46212 33.4717 9.05762 33.4717C8.65311 33.4717 8.3252 33.7996 8.3252 34.2041C8.3252 34.6086 8.65311 34.9365 9.05762 34.9365Z" fill="black"/>
<path d="M15.7959 41.6748C16.2004 41.6748 16.5283 41.3469 16.5283 40.9424C16.5283 40.5379 16.2004 40.21 15.7959 40.21C15.3914 40.21 15.0635 40.5379 15.0635 40.9424C15.0635 41.3469 15.3914 41.6748 15.7959 41.6748Z" fill="black"/>
<path d="M34.2041 41.6748C34.6086 41.6748 34.9365 41.3469 34.9365 40.9424C34.9365 40.5379 34.6086 40.21 34.2041 40.21C33.7996 40.21 33.4717 40.5379 33.4717 40.9424C33.4717 41.3469 33.7996 41.6748 34.2041 41.6748Z" fill="black"/>
<path d="M40.9424 34.9365C41.3469 34.9365 41.6748 34.6086 41.6748 34.2041C41.6748 33.7996 41.3469 33.4717 40.9424 33.4717C40.5379 33.4717 40.21 33.7996 40.21 34.2041C40.21 34.6086 40.5379 34.9365 40.9424 34.9365Z" fill="black"/>
<path d="M43.4082 25.7324C43.8127 25.7324 44.1406 25.4045 44.1406 25C44.1406 24.5955 43.8127 24.2676 43.4082 24.2676C43.0037 24.2676 42.6758 24.5955 42.6758 25C42.6758 25.4045 43.0037 25.7324 43.4082 25.7324Z" fill="black"/>
<path d="M40.9424 16.5283C41.3469 16.5283 41.6748 16.2004 41.6748 15.7959C41.6748 15.3914 41.3469 15.0635 40.9424 15.0635C40.5379 15.0635 40.21 15.3914 40.21 15.7959C40.21 16.2004 40.5379 16.5283 40.9424 16.5283Z" fill="black"/>
<path d="M34.2041 9.79004C34.6086 9.79004 34.9365 9.46212 34.9365 9.05762C34.9365 8.65311 34.6086 8.3252 34.2041 8.3252C33.7996 8.3252 33.4717 8.65311 33.4717 9.05762C33.4717 9.46212 33.7996 9.79004 34.2041 9.79004Z" fill="black"/>
<path d="M40.6061 9.39395C36.4375 5.22539 30.8951 2.92969 25 2.92969C19.6669 2.92969 14.5181 4.8582 10.5021 8.35977C10.1973 8.62568 10.1656 9.08828 10.4313 9.39316C10.6973 9.69814 11.16 9.72969 11.4647 9.46387C15.214 6.19492 20.0208 4.39453 25 4.39453C36.3619 4.39453 45.6055 13.6381 45.6055 25C45.6055 36.3619 36.3619 45.6055 25 45.6055C13.6381 45.6055 4.39453 36.3619 4.39453 25C4.39453 20.0208 6.19492 15.214 9.46387 11.4647C9.72979 11.1599 9.69805 10.6973 9.39316 10.4313C9.08848 10.1655 8.62578 10.1971 8.35977 10.5021C4.8582 14.5181 2.92969 19.6669 2.92969 25C2.92969 30.8951 5.22539 36.4375 9.39395 40.6061C13.5625 44.7746 19.1049 47.0703 25 47.0703C30.8951 47.0703 36.4375 44.7746 40.6061 40.6061C44.7746 36.4375 47.0703 30.8951 47.0703 25C47.0703 19.1049 44.7746 13.5625 40.6061 9.39395Z" fill="black"/>
</svg>
