<svg width="30" height="30" viewBox="0 0 30 30" fill="none" xmlns="http://www.w3.org/2000/svg">
<path d="M25.6066 4.39336C22.7735 1.56029 19.0066 0 15 0C10.9934 0 7.22654 1.56029 4.39336 4.39336C1.56029 7.22654 0 10.9934 0 15C0 19.0066 1.56029 22.7735 4.39336 25.6066C7.22654 28.4397 10.9934 30 15 30C19.0066 30 22.7735 28.4397 25.6066 25.6066C28.4397 22.7735 30 19.0066 30 15C30 10.9934 28.4397 7.22654 25.6066 4.39336ZM15 28.2422C7.69822 28.2422 1.75781 22.3018 1.75781 15C1.75781 7.69822 7.69822 1.75781 15 1.75781C22.3018 1.75781 28.2422 7.69822 28.2422 15C28.2422 22.3018 22.3018 28.2422 15 28.2422Z" fill="black"/>
<path d="M21.9599 14.2875L11.413 6.67029C11.1455 6.47704 10.7921 6.45003 10.4983 6.60027C10.2045 6.7505 10.0195 7.05273 10.0195 7.38279V22.6172C10.0195 22.9472 10.2045 23.2494 10.4983 23.3997C10.6245 23.4643 10.7617 23.4961 10.8983 23.4961C11.0798 23.4961 11.2604 23.4399 11.413 23.3297L21.9599 15.7125C22.1886 15.5472 22.3242 15.2822 22.3242 15C22.3242 14.7178 22.1888 14.4527 21.9599 14.2875ZM11.7773 20.8983V9.10169L19.9442 15L11.7773 20.8983Z" fill="black"/>
</svg>
